<svg xmlns="http://www.w3.org/2000/svg" xmlns:xlink="http://www.w3.org/1999/xlink" width="1920" zoomAndPan="magnify" viewBox="0 0 1440 809.999993" height="1080" preserveAspectRatio="xMidYMid meet" version="1.0"><defs><clipPath id="id1"><path d="M 740 718 L 748 718 L 748 728.992188 L 740 728.992188 Z M 740 718 " clip-rule="nonzero"/></clipPath></defs><path fill="#3b3838" d="M 735.289062 702.140625 C 736.511719 702.0625 737.734375 702.285156 738.625 702.214844 C 740.65625 702.058594 741.339844 701.683594 741.339844 701.683594 C 741.339844 701.683594 742.105469 701.550781 743.792969 700.40625 C 744.53125 699.902344 745.351562 698.96875 746.355469 698.261719 C 749.800781 695.855469 755.121094 701.097656 751.898438 705.226562 C 749.4375 708.371094 750.210938 708.296875 750.105469 711.105469 C 749.964844 714.941406 746.339844 716.023438 746.339844 716.023438 C 746.339844 716.023438 742.832031 717.441406 740.335938 714.527344 C 738.507812 712.394531 739.160156 711.96875 735.277344 711.042969 C 730.191406 709.824219 731.097656 702.40625 735.289062 702.140625 " fill-opacity="1" fill-rule="nonzero"/><path fill="#3b3838" d="M 752.710938 706.199219 C 754.292969 705.484375 757.558594 705.125 758.796875 709.128906 C 759.414062 711.132812 759.25 713.457031 758.289062 714.925781 C 758.371094 715.144531 758.777344 716.382812 758.144531 717.667969 C 758.089844 717.773438 757.929688 717.734375 757.929688 717.617188 C 757.933594 717.1875 757.847656 716.523438 757.425781 715.835938 C 757.273438 715.945312 757.109375 716.039062 756.933594 716.121094 C 755.347656 716.820312 754.738281 714.316406 753.070312 711.703125 C 751.441406 709.152344 751.128906 706.90625 752.710938 706.199219 " fill-opacity="1" fill-rule="nonzero"/><path fill="#3b3838" d="M 735.246094 712.3125 C 736.925781 711.878906 738.078125 713.832031 738.386719 716.84375 C 738.707031 719.929688 739.785156 722.273438 738.109375 722.707031 C 737.921875 722.753906 737.734375 722.78125 737.542969 722.792969 C 737.644531 723.597656 737.988281 724.167969 738.261719 724.503906 C 738.335938 724.597656 738.234375 724.726562 738.125 724.675781 C 736.828125 724.070312 736.378906 722.839844 736.308594 722.621094 C 734.644531 722.078125 733.070312 720.355469 732.308594 718.402344 C 730.789062 714.5 733.566406 712.742188 735.246094 712.3125 " fill-opacity="1" fill-rule="nonzero"/><path fill="#3b3838" d="M 749.871094 716.140625 C 751.3125 715.636719 754.207031 715.570312 754.996094 719.175781 C 755.386719 720.984375 755.066406 723.011719 754.113281 724.226562 C 754.167969 724.429688 754.433594 725.546875 753.78125 726.628906 C 753.726562 726.714844 753.585938 726.671875 753.59375 726.5625 C 753.632812 726.191406 753.605469 725.601562 753.289062 724.960938 C 753.144531 725.046875 752.992188 725.117188 752.832031 725.171875 C 751.386719 725.671875 751.042969 723.425781 749.773438 721.003906 C 748.535156 718.640625 748.429688 716.644531 749.871094 716.140625 " fill-opacity="1" fill-rule="nonzero"/><g clip-path="url(#id1)"><path fill="#3b3838" d="M 743.648438 718.320312 C 745.089844 717.8125 746.25 719.441406 746.75 722.0625 C 747.261719 724.75 748.386719 726.722656 746.945312 727.234375 C 746.785156 727.292969 746.625 727.328125 746.457031 727.351562 C 746.605469 728.050781 746.953125 728.523438 747.214844 728.800781 C 747.285156 728.875 747.207031 728.996094 747.109375 728.960938 C 745.925781 728.523438 745.4375 727.480469 745.355469 727.292969 C 743.855469 726.9375 742.34375 725.550781 741.527344 723.894531 C 739.898438 720.578125 742.207031 718.828125 743.648438 718.320312 " fill-opacity="1" fill-rule="nonzero"/></g><path fill="#3b3838" d="M 788.015625 664.265625 C 789.28125 664.515625 790.464844 665.070312 791.394531 665.238281 C 793.507812 665.621094 794.300781 665.421875 794.300781 665.421875 C 794.300781 665.421875 795.117188 665.492188 797.136719 664.78125 C 798.03125 664.46875 799.113281 663.734375 800.324219 663.285156 C 804.480469 661.757812 808.5 668.523438 804.113281 671.863281 C 800.761719 674.414062 801.574219 674.542969 800.714844 677.378906 C 799.542969 681.246094 795.5625 681.378906 795.5625 681.378906 C 795.5625 681.378906 791.609375 681.878906 789.847656 678.238281 C 788.554688 675.578125 789.332031 675.324219 785.621094 673.332031 C 780.765625 670.730469 783.671875 663.410156 788.015625 664.265625 " fill-opacity="1" fill-rule="nonzero"/><path fill="#3b3838" d="M 804.683594 673.078125 C 806.484375 672.777344 809.90625 673.292969 810.101562 677.699219 C 810.191406 679.910156 809.40625 682.234375 808.035156 683.46875 C 808.058594 683.710938 808.144531 685.085938 807.148438 686.226562 C 807.070312 686.320312 806.914062 686.238281 806.945312 686.117188 C 807.066406 685.679688 807.15625 684.980469 806.910156 684.164062 C 806.726562 684.234375 806.53125 684.289062 806.332031 684.320312 C 804.53125 684.613281 804.578125 681.894531 803.574219 678.789062 C 802.601562 675.753906 802.878906 673.378906 804.683594 673.078125 " fill-opacity="1" fill-rule="nonzero"/><path fill="#3b3838" d="M 785.25 674.621094 C 787.078125 674.632812 787.730469 676.933594 787.242188 680.082031 C 786.738281 683.3125 787.21875 685.988281 785.390625 685.984375 C 785.1875 685.984375 784.988281 685.957031 784.792969 685.921875 C 784.679688 686.765625 784.882812 687.441406 785.066406 687.855469 C 785.117188 687.964844 784.980469 688.074219 784.882812 687.992188 C 783.722656 687.023438 783.59375 685.65625 783.578125 685.410156 C 782.03125 684.40625 780.886719 682.238281 780.632812 680.039062 C 780.128906 675.65625 783.429688 674.609375 785.25 674.621094 " fill-opacity="1" fill-rule="nonzero"/><path fill="#3b3838" d="M 799.128906 682.449219 C 800.734375 682.316406 803.699219 683.027344 803.539062 686.917969 C 803.457031 688.859375 802.585938 690.84375 801.289062 691.824219 C 801.292969 692.042969 801.261719 693.257812 800.308594 694.179688 C 800.230469 694.257812 800.101562 694.171875 800.136719 694.070312 C 800.273438 693.695312 800.410156 693.085938 800.253906 692.351562 C 800.082031 692.398438 799.910156 692.429688 799.734375 692.445312 C 798.128906 692.5625 798.375 690.183594 797.730469 687.375 C 797.097656 684.640625 797.527344 682.574219 799.128906 682.449219 " fill-opacity="1" fill-rule="nonzero"/><path fill="#3b3838" d="M 792.207031 682.996094 C 793.808594 682.867188 794.558594 684.839844 794.367188 687.640625 C 794.167969 690.515625 794.785156 692.828125 793.183594 692.964844 C 793.007812 692.980469 792.828125 692.976562 792.65625 692.953125 C 792.617188 693.707031 792.84375 694.285156 793.039062 694.632812 C 793.089844 694.730469 792.980469 694.832031 792.886719 694.765625 C 791.796875 694.003906 791.578125 692.8125 791.550781 692.597656 C 790.113281 691.832031 788.941406 690.011719 788.554688 688.105469 C 787.785156 684.292969 790.601562 683.121094 792.207031 682.996094 " fill-opacity="1" fill-rule="nonzero"/><path fill="#3b3838" d="M 809.851562 636.25 C 810.859375 636.4375 811.804688 636.867188 812.542969 636.996094 C 814.222656 637.28125 814.851562 637.117188 814.851562 637.117188 C 814.851562 637.117188 815.496094 637.167969 817.097656 636.585938 C 817.804688 636.328125 818.660156 635.738281 819.617188 635.375 C 822.898438 634.125 826.144531 639.464844 822.6875 642.152344 C 820.050781 644.203125 820.691406 644.296875 820.035156 646.554688 C 819.132812 649.636719 815.976562 649.769531 815.976562 649.769531 C 815.976562 649.769531 812.84375 650.199219 811.417969 647.328125 C 810.371094 645.21875 810.988281 645.011719 808.023438 643.464844 C 804.148438 641.433594 806.398438 635.605469 809.851562 636.25 " fill-opacity="1" fill-rule="nonzero"/><path fill="#3b3838" d="M 823.148438 643.109375 C 824.578125 642.859375 827.296875 643.234375 827.480469 646.734375 C 827.574219 648.484375 826.96875 650.335938 825.886719 651.328125 C 825.910156 651.523438 825.988281 652.609375 825.210938 653.523438 C 825.144531 653.597656 825.023438 653.535156 825.046875 653.4375 C 825.140625 653.089844 825.207031 652.535156 825.003906 651.890625 C 824.855469 651.945312 824.703125 651.992188 824.546875 652.015625 C 823.117188 652.265625 823.136719 650.105469 822.3125 647.648438 C 821.511719 645.25 821.722656 643.359375 823.148438 643.109375 " fill-opacity="1" fill-rule="nonzero"/><path fill="#3b3838" d="M 807.550781 655.101562 C 806.621094 654.34375 806.507812 653.257812 806.496094 653.058594 C 805.257812 652.277344 804.332031 650.5625 804.117188 648.820312 C 803.679688 645.347656 806.289062 644.488281 807.738281 644.484375 C 809.1875 644.476562 809.726562 646.296875 809.359375 648.804688 C 808.988281 651.367188 809.386719 653.488281 807.9375 653.5 C 807.777344 653.5 807.617188 653.484375 807.460938 653.453125 C 807.378906 654.125 807.542969 654.660156 807.691406 654.984375 C 807.734375 655.078125 807.628906 655.164062 807.550781 655.101562 " fill-opacity="1" fill-rule="nonzero"/><path fill="#3b3838" d="M 818.8125 650.585938 C 820.085938 650.472656 822.445312 651.011719 822.347656 654.097656 C 822.300781 655.644531 821.628906 657.226562 820.601562 658.015625 C 820.605469 658.183594 820.59375 659.148438 819.84375 659.886719 C 819.78125 659.949219 819.675781 659.886719 819.707031 659.800781 C 819.8125 659.503906 819.910156 659.019531 819.785156 658.441406 C 819.652344 658.480469 819.511719 658.507812 819.371094 658.519531 C 818.101562 658.625 818.273438 656.734375 817.742188 654.511719 C 817.21875 652.34375 817.539062 650.703125 818.8125 650.585938 " fill-opacity="1" fill-rule="nonzero"/><path fill="#3b3838" d="M 813.328125 651.082031 C 814.597656 650.96875 815.207031 652.527344 815.078125 654.75 C 814.945312 657.035156 815.453125 658.867188 814.183594 658.988281 C 814.039062 659 813.898438 658.996094 813.761719 658.984375 C 813.738281 659.578125 813.921875 660.035156 814.078125 660.308594 C 814.125 660.386719 814.03125 660.46875 813.957031 660.417969 C 813.089844 659.820312 812.90625 658.878906 812.878906 658.707031 C 811.738281 658.113281 810.792969 656.679688 810.472656 655.164062 C 809.828125 652.148438 812.054688 651.195312 813.328125 651.082031 " fill-opacity="1" fill-rule="nonzero"/><path fill="#3b3838" d="M 735.101562 613.113281 C 732.246094 610.324219 735.734375 605.824219 738.582031 607.292969 C 739.414062 607.722656 740.125 608.347656 740.734375 608.652344 C 742.128906 609.34375 742.71875 609.363281 742.71875 609.363281 C 742.71875 609.363281 743.269531 609.574219 744.820312 609.492188 C 745.503906 609.453125 746.402344 609.160156 747.335938 609.09375 C 750.527344 608.863281 751.964844 614.378906 748.246094 615.816406 C 745.40625 616.914062 745.941406 617.167969 744.777344 618.964844 C 743.1875 621.421875 740.394531 620.707031 740.394531 620.707031 C 740.394531 620.707031 737.546875 620.261719 737.050781 617.378906 C 736.6875 615.265625 737.28125 615.242188 735.101562 613.113281 " fill-opacity="1" fill-rule="nonzero"/><path fill="#3b3838" d="M 747.289062 624.921875 C 745.980469 624.761719 746.558594 622.882812 746.484375 620.519531 C 746.414062 618.214844 747.085938 616.621094 748.398438 616.777344 C 749.710938 616.929688 751.988281 617.972656 751.234375 621.078125 C 750.859375 622.632812 749.84375 624.089844 748.644531 624.671875 C 748.609375 624.847656 748.394531 625.820312 747.476562 626.410156 C 747.402344 626.457031 747.3125 626.371094 747.359375 626.292969 C 747.527344 626.015625 747.730469 625.546875 747.726562 624.929688 C 747.582031 624.9375 747.4375 624.9375 747.289062 624.921875 " fill-opacity="1" fill-rule="nonzero"/><path fill="#3b3838" d="M 730.285156 616.769531 C 730.816406 613.621094 733.316406 613.558594 734.585938 613.933594 C 735.851562 614.308594 735.84375 616.039062 734.871094 618.132812 C 733.878906 620.277344 733.671875 622.230469 732.402344 621.859375 C 732.261719 621.820312 732.128906 621.761719 732 621.695312 C 731.75 622.261719 731.753906 622.769531 731.800781 623.09375 C 731.816406 623.183594 731.695312 623.230469 731.644531 623.15625 C 731.035156 622.25 731.21875 621.269531 731.257812 621.097656 C 730.382812 620.089844 730.023438 618.347656 730.285156 616.769531 " fill-opacity="1" fill-rule="nonzero"/><path fill="#3b3838" d="M 740.699219 625.316406 C 740.808594 623.285156 741.519531 621.933594 742.660156 622.171875 C 743.800781 622.402344 745.722656 623.496094 744.828125 626.164062 C 744.382812 627.5 743.378906 628.703125 742.28125 629.121094 C 742.238281 629.277344 741.976562 630.113281 741.128906 630.5625 C 741.054688 630.601562 740.984375 630.515625 741.03125 630.449219 C 741.203125 630.21875 741.414062 629.824219 741.457031 629.28125 C 741.328125 629.28125 741.203125 629.265625 741.074219 629.242188 C 739.9375 629.003906 740.585938 627.394531 740.699219 625.316406 " fill-opacity="1" fill-rule="nonzero"/><path fill="#3b3838" d="M 734.175781 623.972656 C 734.40625 621.167969 736.597656 620.925781 737.738281 621.15625 C 738.878906 621.394531 739.003906 622.914062 738.308594 624.820312 C 737.59375 626.78125 737.5625 628.515625 736.417969 628.285156 C 736.292969 628.257812 736.171875 628.21875 736.050781 628.167969 C 735.878906 628.683594 735.917969 629.132812 735.984375 629.414062 C 736.003906 629.488281 735.902344 629.539062 735.851562 629.476562 C 735.246094 628.730469 735.335938 627.859375 735.355469 627.699219 C 734.511719 626.878906 734.0625 625.378906 734.175781 623.972656 " fill-opacity="1" fill-rule="nonzero"/><path fill="#3b3838" d="M 726.183594 583.273438 C 725.726562 581.429688 726.25 581.375 724.1875 579.628906 C 721.484375 577.34375 724.28125 573.144531 726.894531 574.257812 C 727.65625 574.582031 728.328125 575.089844 728.886719 575.320312 C 730.160156 575.839844 730.683594 575.824219 730.683594 575.824219 C 730.683594 575.824219 731.1875 575.976562 732.554688 575.800781 C 733.152344 575.722656 733.929688 575.40625 734.75 575.285156 C 737.5625 574.882812 739.183594 579.667969 735.988281 581.175781 C 733.546875 582.328125 734.035156 582.519531 733.121094 584.183594 C 731.871094 586.457031 729.355469 586.007812 729.355469 586.007812 C 729.355469 586.007812 726.808594 585.792969 726.183594 583.273438 " fill-opacity="1" fill-rule="nonzero"/><path fill="#3b3838" d="M 736.183594 582.015625 C 737.351562 582.066406 739.433594 582.847656 738.96875 585.640625 C 738.734375 587.035156 737.925781 588.390625 736.902344 588.984375 C 736.886719 589.140625 736.757812 590.015625 735.984375 590.597656 C 735.921875 590.644531 735.835938 590.570312 735.871094 590.5 C 736.003906 590.242188 736.152344 589.816406 736.109375 589.269531 C 735.980469 589.289062 735.851562 589.296875 735.722656 589.292969 C 734.554688 589.234375 734.945312 587.535156 734.730469 585.449219 C 734.519531 583.414062 735.011719 581.960938 736.183594 582.015625 " fill-opacity="1" fill-rule="nonzero"/><path fill="#3b3838" d="M 723.785156 580.390625 C 724.925781 580.640625 725.03125 582.171875 724.304688 584.082031 C 723.5625 586.042969 723.503906 587.785156 722.359375 587.539062 C 722.230469 587.511719 722.109375 587.46875 721.992188 587.417969 C 721.808594 587.933594 721.84375 588.386719 721.90625 588.667969 C 721.921875 588.746094 721.820312 588.792969 721.769531 588.730469 C 721.175781 587.96875 721.273438 587.09375 721.296875 586.933594 C 720.460938 586.101562 720.027344 584.585938 720.164062 583.171875 C 720.429688 580.351562 722.640625 580.136719 723.785156 580.390625 " fill-opacity="1" fill-rule="nonzero"/><path fill="#3b3838" d="M 729.917969 590.0625 C 729.886719 588.253906 730.429688 587.019531 731.453125 587.15625 C 732.476562 587.289062 734.246094 588.128906 733.625 590.550781 C 733.3125 591.761719 732.503906 592.886719 731.5625 593.332031 C 731.53125 593.464844 731.355469 594.222656 730.632812 594.675781 C 730.570312 594.714844 730.5 594.644531 730.539062 594.585938 C 730.675781 594.363281 730.839844 594.003906 730.839844 593.523438 C 730.726562 593.527344 730.613281 593.523438 730.5 593.507812 C 729.476562 593.371094 729.949219 591.90625 729.917969 590.0625 " fill-opacity="1" fill-rule="nonzero"/><path fill="#3b3838" d="M 727.035156 586.578125 C 728.058594 586.707031 728.265625 588.046875 727.769531 589.777344 C 727.265625 591.554688 727.34375 593.089844 726.320312 592.960938 C 726.207031 592.949219 726.097656 592.921875 725.992188 592.886719 C 725.867188 593.351562 725.933594 593.746094 726.007812 593.988281 C 726.03125 594.054688 725.945312 594.105469 725.894531 594.054688 C 725.3125 593.429688 725.335938 592.652344 725.34375 592.515625 C 724.542969 591.84375 724.054688 590.542969 724.0625 589.292969 C 724.085938 586.796875 726.011719 586.441406 727.035156 586.578125 " fill-opacity="1" fill-rule="nonzero"/><path fill="#3b3838" d="M 801.386719 559.84375 C 801.980469 558.914062 802.785156 558.140625 803.207031 557.457031 C 804.167969 555.894531 804.257812 555.203125 804.257812 555.203125 C 804.257812 555.203125 804.566406 554.574219 804.632812 552.746094 C 804.660156 551.941406 804.414062 550.847656 804.4375 549.746094 C 804.515625 545.964844 811.125 544.871094 812.40625 549.398438 C 813.390625 552.855469 813.742188 552.25 815.722656 553.8125 C 818.425781 555.949219 817.289062 559.15625 817.289062 559.15625 C 817.289062 559.15625 816.460938 562.453125 813.027344 562.726562 C 810.515625 562.929688 810.558594 562.230469 807.828125 564.5625 C 804.253906 567.617188 799.359375 563.035156 801.386719 559.84375 " fill-opacity="1" fill-rule="nonzero"/><path fill="#3b3838" d="M 824.578125 551.570312 C 824.269531 551.339844 823.746094 551.050781 823.019531 550.992188 C 823.019531 551.160156 823 551.332031 822.964844 551.503906 C 822.636719 553.027344 820.5 552.144531 817.722656 551.976562 C 815.015625 551.808594 813.226562 550.847656 813.546875 549.324219 C 813.867188 547.796875 815.335938 545.234375 818.890625 546.449219 C 820.667969 547.058594 822.265625 548.410156 822.816406 549.886719 C 823.019531 549.941406 824.136719 550.300781 824.726562 551.441406 C 824.777344 551.535156 824.664062 551.632812 824.578125 551.570312 " fill-opacity="1" fill-rule="nonzero"/><path fill="#3b3838" d="M 816.761719 569.941406 C 815.488281 570.863281 813.410156 571.097656 811.589844 570.617188 C 807.960938 569.65625 808.15625 566.707031 808.734375 565.257812 C 809.3125 563.808594 811.332031 564.003906 813.679688 565.371094 C 816.082031 566.773438 818.351562 567.226562 817.777344 568.675781 C 817.714844 568.839844 817.632812 568.988281 817.542969 569.132812 C 818.175781 569.484375 818.773438 569.539062 819.160156 569.515625 C 819.265625 569.511719 819.304688 569.652344 819.214844 569.707031 C 818.085938 570.328125 816.960938 570.007812 816.761719 569.941406 " fill-opacity="1" fill-rule="nonzero"/><path fill="#3b3838" d="M 827.355469 559.273438 C 826.949219 560.589844 825.140625 559.652344 822.714844 559.296875 C 820.347656 558.945312 818.847656 557.964844 819.246094 556.648438 C 819.640625 555.332031 821.128906 553.195312 824.152344 554.53125 C 825.671875 555.199219 826.972656 556.507812 827.347656 557.84375 C 827.523438 557.910156 828.46875 558.308594 828.90625 559.355469 C 828.945312 559.445312 828.835938 559.519531 828.765625 559.457031 C 828.511719 559.230469 828.070312 558.9375 827.441406 558.832031 C 827.425781 558.980469 827.398438 559.128906 827.355469 559.273438 " fill-opacity="1" fill-rule="nonzero"/><path fill="#3b3838" d="M 827.007812 565.28125 C 827.101562 565.265625 827.148438 565.390625 827.070312 565.441406 C 826.128906 566.070312 825.113281 565.875 824.933594 565.832031 C 823.882812 566.738281 822.078125 567.101562 820.441406 566.816406 C 817.183594 566.246094 817.132812 563.644531 817.53125 562.328125 C 817.929688 561.011719 819.71875 561.03125 821.882812 562.054688 C 824.097656 563.101562 826.125 563.328125 825.734375 564.648438 C 825.6875 564.792969 825.628906 564.933594 825.558594 565.0625 C 826.144531 565.324219 826.671875 565.324219 827.007812 565.28125 " fill-opacity="1" fill-rule="nonzero"/><path fill="#3b3838" d="M 752.941406 522.382812 C 751.3125 524.574219 751.835938 524.507812 751.808594 526.425781 C 751.769531 529.046875 749.316406 529.839844 749.316406 529.839844 C 749.316406 529.839844 746.945312 530.859375 745.195312 528.90625 C 743.917969 527.484375 744.355469 527.183594 741.691406 526.609375 C 738.203125 525.855469 738.707031 520.785156 741.5625 520.539062 C 742.398438 520.464844 743.234375 520.597656 743.84375 520.539062 C 745.226562 520.398438 745.683594 520.132812 745.683594 520.132812 C 745.683594 520.132812 746.203125 520.03125 747.339844 519.222656 C 747.835938 518.871094 748.378906 518.21875 749.054688 517.722656 C 751.367188 516.027344 755.078125 519.519531 752.941406 522.382812 " fill-opacity="1" fill-rule="nonzero"/><path fill="#3b3838" d="M 757.394531 530.777344 C 757.359375 530.855469 757.25 530.828125 757.246094 530.75 C 757.242188 530.457031 757.175781 530.007812 756.875 529.539062 C 756.773438 529.617188 756.660156 529.683594 756.542969 529.742188 C 755.472656 530.246094 755.019531 528.546875 753.839844 526.789062 C 752.691406 525.078125 752.445312 523.546875 753.511719 523.039062 C 754.578125 522.53125 756.800781 522.234375 757.707031 524.945312 C 758.160156 526.304688 758.082031 527.890625 757.449219 528.90625 C 757.507812 529.054688 757.804688 529.894531 757.394531 530.777344 " fill-opacity="1" fill-rule="nonzero"/><path fill="#3b3838" d="M 743.84375 535.871094 C 742.953125 535.472656 742.625 534.644531 742.574219 534.496094 C 741.429688 534.148438 740.332031 533 739.78125 531.679688 C 738.683594 529.039062 740.550781 527.796875 741.691406 527.476562 C 742.828125 527.160156 743.648438 528.472656 743.902344 530.523438 C 744.167969 532.625 744.941406 534.203125 743.804688 534.523438 C 743.675781 534.5625 743.550781 534.585938 743.421875 534.59375 C 743.5 535.140625 743.746094 535.527344 743.933594 535.75 C 743.988281 535.8125 743.917969 535.902344 743.84375 535.871094 " fill-opacity="1" fill-rule="nonzero"/><path fill="#3b3838" d="M 753.882812 535.984375 C 752.90625 536.34375 752.636719 534.816406 751.734375 533.1875 C 750.851562 531.59375 750.75 530.230469 751.726562 529.867188 C 752.703125 529.5 754.675781 529.40625 755.269531 531.859375 C 755.5625 533.085938 755.375 534.476562 754.742188 535.320312 C 754.785156 535.453125 754.980469 536.210938 754.554688 536.960938 C 754.515625 537.019531 754.421875 536.992188 754.425781 536.921875 C 754.445312 536.660156 754.417969 536.261719 754.191406 535.832031 C 754.09375 535.890625 753.992188 535.941406 753.882812 535.984375 " fill-opacity="1" fill-rule="nonzero"/><path fill="#3b3838" d="M 750.039062 538.65625 C 749.222656 538.375 748.875 537.671875 748.816406 537.542969 C 747.789062 537.324219 746.734375 536.398438 746.152344 535.28125 C 744.992188 533.046875 746.539062 531.816406 747.515625 531.449219 C 748.492188 531.082031 749.308594 532.171875 749.6875 533.953125 C 750.078125 535.777344 750.875 537.109375 749.902344 537.480469 C 749.792969 537.519531 749.679688 537.550781 749.570312 537.566406 C 749.679688 538.042969 749.925781 538.359375 750.109375 538.542969 C 750.160156 538.59375 750.105469 538.679688 750.039062 538.65625 " fill-opacity="1" fill-rule="nonzero"/><path fill="#3b3838" d="M 740.191406 493.675781 C 739.738281 491.761719 740.277344 491.710938 738.160156 489.886719 C 735.386719 487.5 738.320312 483.179688 741.007812 484.359375 C 741.792969 484.703125 742.484375 485.230469 743.058594 485.476562 C 744.371094 486.027344 744.914062 486.015625 744.914062 486.015625 C 744.914062 486.015625 745.433594 486.175781 746.847656 486.003906 C 747.46875 485.933594 748.273438 485.609375 749.125 485.496094 C 752.035156 485.101562 753.667969 490.066406 750.347656 491.597656 C 747.8125 492.765625 748.320312 492.964844 747.359375 494.679688 C 746.042969 497.019531 743.449219 496.527344 743.449219 496.527344 C 743.449219 496.527344 740.816406 496.285156 740.191406 493.675781 " fill-opacity="1" fill-rule="nonzero"/><path fill="#3b3838" d="M 753.390625 496.238281 C 753.136719 497.679688 752.289062 499.074219 751.226562 499.675781 C 751.207031 499.839844 751.066406 500.738281 750.261719 501.335938 C 750.191406 501.386719 750.105469 501.308594 750.144531 501.234375 C 750.285156 500.96875 750.441406 500.53125 750.398438 499.96875 C 750.269531 499.984375 750.136719 499.992188 750.003906 499.984375 C 748.792969 499.914062 749.214844 498.160156 749.007812 496.003906 C 748.808594 493.894531 749.335938 492.398438 750.542969 492.464844 C 751.753906 492.527344 753.898438 493.351562 753.390625 496.238281 " fill-opacity="1" fill-rule="nonzero"/><path fill="#3b3838" d="M 733.964844 493.515625 C 734.265625 490.601562 736.554688 490.398438 737.734375 490.667969 C 738.917969 490.9375 739.011719 492.519531 738.242188 494.492188 C 737.457031 496.511719 737.378906 498.316406 736.199219 498.050781 C 736.066406 498.019531 735.941406 497.980469 735.820312 497.921875 C 735.625 498.453125 735.65625 498.917969 735.71875 499.214844 C 735.734375 499.296875 735.628906 499.34375 735.582031 499.277344 C 734.96875 498.484375 735.082031 497.578125 735.105469 497.417969 C 734.246094 496.546875 733.816406 494.976562 733.964844 493.515625 " fill-opacity="1" fill-rule="nonzero"/><path fill="#3b3838" d="M 744.5625 504.300781 C 743.507812 504.148438 744.007812 502.640625 743.992188 500.726562 C 743.976562 498.863281 744.546875 497.589844 745.605469 497.738281 C 746.664062 497.882812 748.484375 498.773438 747.820312 501.265625 C 747.488281 502.515625 746.640625 503.675781 745.660156 504.121094 C 745.632812 504.265625 745.441406 505.042969 744.6875 505.507812 C 744.625 505.542969 744.554688 505.472656 744.59375 505.40625 C 744.734375 505.183594 744.90625 504.8125 744.914062 504.3125 C 744.796875 504.320312 744.679688 504.316406 744.5625 504.300781 " fill-opacity="1" fill-rule="nonzero"/><path fill="#3b3838" d="M 741.042969 497.097656 C 742.097656 497.246094 742.300781 498.625 741.773438 500.417969 C 741.234375 502.25 741.304688 503.839844 740.246094 503.695312 C 740.128906 503.679688 740.015625 503.648438 739.90625 503.613281 C 739.773438 504.09375 739.835938 504.5 739.914062 504.753906 C 739.933594 504.824219 739.847656 504.875 739.796875 504.820312 C 739.199219 504.167969 739.230469 503.367188 739.242188 503.222656 C 738.417969 502.519531 737.921875 501.175781 737.945312 499.882812 C 737.988281 497.300781 739.984375 496.945312 741.042969 497.097656 " fill-opacity="1" fill-rule="nonzero"/><path fill="#3b3838" d="M 789.4375 469.519531 C 790.257812 469.089844 791.171875 468.867188 791.765625 468.542969 C 793.125 467.808594 793.480469 467.339844 793.480469 467.339844 C 793.480469 467.339844 793.96875 467.011719 794.785156 465.699219 C 795.144531 465.125 795.421875 464.222656 795.902344 463.429688 C 797.542969 460.703125 802.832031 462.6875 801.871094 466.535156 C 801.136719 469.476562 801.648438 469.183594 802.4375 471.15625 C 803.519531 473.855469 801.34375 475.722656 801.34375 475.722656 C 801.34375 475.722656 799.347656 477.78125 796.726562 476.535156 C 794.808594 475.625 795.132812 475.128906 792.160156 475.683594 C 788.269531 476.410156 786.617188 470.996094 789.4375 469.519531 " fill-opacity="1" fill-rule="nonzero"/><path fill="#3b3838" d="M 807.84375 467.117188 C 808.886719 468.3125 809.488281 469.96875 809.269531 471.28125 C 809.398438 471.40625 810.058594 472.136719 810.011719 473.222656 C 810.007812 473.3125 809.886719 473.335938 809.851562 473.253906 C 809.71875 472.953125 809.460938 472.523438 808.953125 472.175781 C 808.882812 472.296875 808.796875 472.417969 808.699219 472.523438 C 807.820312 473.496094 806.632812 471.953125 804.671875 470.660156 C 802.765625 469.394531 801.859375 467.941406 802.734375 466.957031 C 803.609375 465.980469 805.757812 464.726562 807.84375 467.117188 " fill-opacity="1" fill-rule="nonzero"/><path fill="#3b3838" d="M 798.355469 484.078125 C 798.433594 484.121094 798.40625 484.242188 798.316406 484.238281 C 797.234375 484.21875 796.546875 483.511719 796.425781 483.378906 C 795.109375 483.511719 793.492188 482.8125 792.367188 481.691406 C 790.117188 479.460938 791.496094 477.390625 792.527344 476.574219 C 793.558594 475.757812 794.953125 476.753906 796.09375 478.742188 C 797.261719 480.777344 798.726562 482.0625 797.699219 482.882812 C 797.589844 482.976562 797.464844 483.050781 797.335938 483.117188 C 797.65625 483.640625 798.070312 483.929688 798.355469 484.078125 " fill-opacity="1" fill-rule="nonzero"/><path fill="#3b3838" d="M 809.746094 480.765625 C 809.730469 480.84375 809.621094 480.855469 809.597656 480.78125 C 809.507812 480.507812 809.308594 480.109375 808.894531 479.765625 C 808.820312 479.867188 808.738281 479.964844 808.644531 480.050781 C 807.796875 480.84375 806.867188 479.394531 805.246094 478.113281 C 803.664062 476.855469 802.980469 475.507812 803.820312 474.714844 C 804.667969 473.921875 806.648438 472.980469 808.296875 475.238281 C 809.125 476.367188 809.527344 477.871094 809.238281 479.003906 C 809.335938 479.125 809.863281 479.816406 809.746094 480.765625 " fill-opacity="1" fill-rule="nonzero"/><path fill="#3b3838" d="M 800.1875 478.140625 C 801.027344 477.347656 802.332031 478.113281 803.480469 479.777344 C 804.65625 481.472656 806.042969 482.492188 805.203125 483.292969 C 805.109375 483.382812 805.007812 483.457031 804.902344 483.527344 C 805.21875 483.960938 805.605469 484.183594 805.867188 484.292969 C 805.945312 484.320312 805.925781 484.429688 805.847656 484.4375 C 804.890625 484.5 804.238281 483.929688 804.125 483.820312 C 802.976562 484.039062 801.503906 483.542969 800.429688 482.648438 C 798.285156 480.859375 799.34375 478.933594 800.1875 478.140625 " fill-opacity="1" fill-rule="nonzero"/><path fill="#3b3838" d="M 783.632812 433.964844 C 783.632812 433.964844 784.257812 433.941406 785.722656 433.210938 C 786.367188 432.890625 787.117188 432.234375 787.996094 431.78125 C 790.992188 430.230469 794.675781 434.972656 791.667969 437.917969 C 789.371094 440.160156 789.996094 440.183594 789.613281 442.410156 C 789.089844 445.453125 786.085938 445.929688 786.085938 445.929688 C 786.085938 445.929688 783.140625 446.679688 781.460938 444.089844 C 780.234375 442.199219 780.800781 441.929688 777.800781 440.773438 C 773.882812 439.261719 775.394531 433.445312 778.765625 433.683594 C 779.746094 433.75 780.695312 434.054688 781.414062 434.097656 C 783.046875 434.1875 783.632812 433.964844 783.632812 433.964844 " fill-opacity="1" fill-rule="nonzero"/><path fill="#3b3838" d="M 792.210938 438.78125 C 793.546875 438.386719 796.1875 438.449219 796.746094 441.769531 C 797.027344 443.433594 796.644531 445.269531 795.722656 446.332031 C 795.761719 446.515625 795.957031 447.546875 795.316406 448.503906 C 795.261719 448.582031 795.140625 448.535156 795.152344 448.4375 C 795.203125 448.097656 795.203125 447.5625 794.941406 446.964844 C 794.808594 447.035156 794.664062 447.09375 794.519531 447.136719 C 793.179688 447.527344 792.960938 445.46875 791.910156 443.207031 C 790.882812 441.003906 790.878906 439.175781 792.210938 438.78125 " fill-opacity="1" fill-rule="nonzero"/><path fill="#3b3838" d="M 777.644531 441.78125 C 779.027344 441.621094 779.738281 443.296875 779.664062 445.734375 C 779.589844 448.222656 780.199219 450.207031 778.816406 450.375 C 778.664062 450.390625 778.511719 450.394531 778.359375 450.382812 C 778.351562 451.035156 778.566406 451.527344 778.746094 451.820312 C 778.792969 451.902344 778.699219 451.996094 778.621094 451.945312 C 777.652344 451.320312 777.425781 450.296875 777.390625 450.113281 C 776.125 449.496094 775.054688 447.960938 774.652344 446.320312 C 773.859375 443.050781 776.261719 441.945312 777.644531 441.78125 " fill-opacity="1" fill-rule="nonzero"/><path fill="#3b3838" d="M 788.890625 446.398438 C 790.09375 446.152344 792.40625 446.410156 792.648438 449.371094 C 792.765625 450.851562 792.296875 452.433594 791.40625 453.296875 C 791.429688 453.464844 791.519531 454.382812 790.882812 455.171875 C 790.828125 455.238281 790.726562 455.1875 790.746094 455.105469 C 790.8125 454.808594 790.855469 454.339844 790.671875 453.792969 C 790.546875 453.84375 790.417969 453.890625 790.285156 453.914062 C 789.082031 454.15625 789.042969 452.328125 788.289062 450.265625 C 787.554688 448.25 787.6875 446.648438 788.890625 446.398438 " fill-opacity="1" fill-rule="nonzero"/><path fill="#3b3838" d="M 785.320312 456.320312 C 784.421875 455.847656 784.148438 454.964844 784.101562 454.800781 C 782.945312 454.359375 781.886719 453.09375 781.417969 451.683594 C 780.46875 448.867188 782.496094 447.71875 783.699219 447.46875 C 784.898438 447.21875 785.648438 448.640625 785.769531 450.785156 C 785.890625 452.980469 786.574219 454.671875 785.375 454.925781 C 785.242188 454.957031 785.105469 454.96875 784.972656 454.96875 C 785.015625 455.539062 785.242188 455.957031 785.421875 456.199219 C 785.472656 456.269531 785.394531 456.359375 785.320312 456.320312 " fill-opacity="1" fill-rule="nonzero"/><path fill="#3b3838" d="M 826.195312 416.273438 C 824.085938 417.703125 824.570312 417.8125 823.957031 419.492188 C 823.121094 421.800781 820.710938 421.742188 820.710938 421.742188 C 820.710938 421.742188 818.300781 421.914062 817.355469 419.652344 C 816.664062 418 817.144531 417.871094 814.964844 416.542969 C 812.117188 414.804688 814.113281 410.476562 816.714844 411.140625 C 817.472656 411.332031 818.171875 411.707031 818.726562 411.839844 C 819.992188 412.144531 820.476562 412.046875 820.476562 412.046875 C 820.476562 412.046875 820.96875 412.117188 822.21875 411.753906 C 822.765625 411.59375 823.445312 411.1875 824.195312 410.960938 C 826.753906 410.171875 828.960938 414.402344 826.195312 416.273438 " fill-opacity="1" fill-rule="nonzero"/><path fill="#3b3838" d="M 828.179688 423.421875 C 828.1875 423.574219 828.195312 424.40625 827.554688 425.0625 C 827.503906 425.113281 827.410156 425.0625 827.4375 424.988281 C 827.523438 424.726562 827.601562 424.308594 827.480469 423.804688 C 827.363281 423.84375 827.246094 423.871094 827.121094 423.882812 C 826.023438 424 826.144531 422.355469 825.640625 420.445312 C 825.152344 418.574219 825.402344 417.148438 826.5 417.027344 C 827.601562 416.90625 829.652344 417.328125 829.621094 420.003906 C 829.605469 421.34375 829.050781 422.722656 828.179688 423.421875 " fill-opacity="1" fill-rule="nonzero"/><path fill="#3b3838" d="M 814.699219 417.3125 C 815.800781 417.378906 816.121094 418.789062 815.71875 420.679688 C 815.308594 422.617188 815.503906 424.25 814.402344 424.1875 C 814.28125 424.179688 814.164062 424.15625 814.042969 424.128906 C 813.945312 424.636719 814.046875 425.050781 814.144531 425.308594 C 814.171875 425.378906 814.082031 425.433594 814.027344 425.386719 C 813.359375 424.761719 813.328125 423.929688 813.328125 423.777344 C 812.421875 423.121094 811.800781 421.769531 811.722656 420.429688 C 811.5625 417.765625 813.59375 417.242188 814.699219 417.3125 " fill-opacity="1" fill-rule="nonzero"/><path fill="#3b3838" d="M 822.863281 428.578125 C 821.886719 428.597656 822.117188 427.164062 821.816406 425.445312 C 821.527344 423.765625 821.855469 422.53125 822.832031 422.511719 C 823.804688 422.484375 825.578125 423.011719 825.347656 425.359375 C 825.234375 426.535156 824.640625 427.703125 823.824219 428.253906 C 823.816406 428.386719 823.761719 429.117188 823.152344 429.644531 C 823.101562 429.6875 823.027344 429.632812 823.050781 429.570312 C 823.148438 429.347656 823.25 428.988281 823.179688 428.539062 C 823.078125 428.558594 822.96875 428.574219 822.863281 428.578125 " fill-opacity="1" fill-rule="nonzero"/><path fill="#3b3838" d="M 818.644531 429.753906 C 818.011719 429.253906 817.917969 428.527344 817.90625 428.394531 C 817.066406 427.886719 816.417969 426.742188 816.246094 425.578125 C 815.90625 423.246094 817.648438 422.632812 818.625 422.609375 C 819.597656 422.585938 819.984375 423.804688 819.773438 425.492188 C 819.5625 427.226562 819.859375 428.644531 818.882812 428.671875 C 818.777344 428.675781 818.667969 428.667969 818.5625 428.648438 C 818.515625 429.101562 818.636719 429.457031 818.742188 429.675781 C 818.769531 429.734375 818.699219 429.796875 818.644531 429.753906 " fill-opacity="1" fill-rule="nonzero"/><path fill="#3b3838" d="M 828.089844 389.875 C 828.132812 392.367188 825.820312 393.195312 825.820312 393.195312 C 825.820312 393.195312 823.597656 394.234375 821.882812 392.433594 C 820.621094 391.113281 821.03125 390.820312 818.480469 390.355469 C 815.144531 389.742188 815.472656 384.902344 818.179688 384.585938 C 818.972656 384.496094 819.769531 384.59375 820.347656 384.519531 C 821.652344 384.34375 822.085938 384.078125 822.085938 384.078125 C 822.085938 384.078125 822.574219 383.964844 823.628906 383.167969 C 824.089844 382.8125 824.589844 382.179688 825.214844 381.6875 C 827.359375 380.007812 830.992188 383.21875 829.046875 386.003906 C 827.5625 388.128906 828.0625 388.054688 828.089844 389.875 " fill-opacity="1" fill-rule="nonzero"/><path fill="#3b3838" d="M 833.523438 392.070312 C 833.585938 392.207031 833.894531 392.996094 833.527344 393.847656 C 833.496094 393.921875 833.390625 393.902344 833.386719 393.824219 C 833.371094 393.546875 833.296875 393.117188 833 392.683594 C 832.902344 392.765625 832.796875 392.832031 832.6875 392.890625 C 831.6875 393.398438 831.203125 391.796875 830.03125 390.164062 C 828.886719 388.566406 828.609375 387.125 829.609375 386.609375 C 830.605469 386.09375 832.710938 385.746094 833.652344 388.296875 C 834.125 389.574219 834.097656 391.085938 833.523438 392.070312 " fill-opacity="1" fill-rule="nonzero"/><path fill="#3b3838" d="M 820.800781 399.089844 C 819.941406 398.742188 819.609375 397.960938 819.550781 397.820312 C 818.457031 397.527344 817.375 396.46875 816.816406 395.226562 C 815.695312 392.75 817.433594 391.515625 818.507812 391.179688 C 819.578125 390.84375 820.390625 392.066406 820.699219 394.007812 C 821.011719 395.992188 821.792969 397.472656 820.722656 397.816406 C 820.601562 397.851562 820.484375 397.878906 820.363281 397.890625 C 820.453125 398.40625 820.699219 398.765625 820.882812 398.972656 C 820.9375 399.027344 820.875 399.117188 820.800781 399.089844 " fill-opacity="1" fill-rule="nonzero"/><path fill="#3b3838" d="M 828.113281 393.152344 C 829.03125 392.773438 830.90625 392.628906 831.539062 394.9375 C 831.855469 396.09375 831.71875 397.421875 831.144531 398.238281 C 831.183594 398.371094 831.398438 399.082031 831.011719 399.808594 C 830.976562 399.867188 830.886719 399.839844 830.890625 399.769531 C 830.898438 399.527344 830.863281 399.144531 830.636719 398.742188 C 830.542969 398.804688 830.449219 398.855469 830.347656 398.898438 C 829.429688 399.269531 829.125 397.828125 828.21875 396.304688 C 827.335938 394.816406 827.199219 393.527344 828.113281 393.152344 " fill-opacity="1" fill-rule="nonzero"/><path fill="#3b3838" d="M 826.769531 401.550781 C 825.988281 401.308594 825.636719 400.652344 825.578125 400.53125 C 824.59375 400.355469 823.5625 399.507812 822.980469 398.460938 C 821.808594 396.371094 823.242188 395.152344 824.160156 394.777344 C 825.078125 394.398438 825.882812 395.414062 826.296875 397.09375 C 826.722656 398.820312 827.523438 400.058594 826.605469 400.4375 C 826.503906 400.480469 826.398438 400.511719 826.289062 400.53125 C 826.414062 400.980469 826.65625 401.273438 826.832031 401.441406 C 826.882812 401.488281 826.832031 401.570312 826.769531 401.550781 " fill-opacity="1" fill-rule="nonzero"/><path fill="#3b3838" d="M 788.726562 347.695312 C 789.191406 347.191406 789.636719 346.347656 790.265625 345.648438 C 792.414062 343.246094 797.296875 346.230469 795.613281 349.871094 C 794.328125 352.65625 794.890625 352.460938 795.300781 354.578125 C 795.863281 357.464844 793.347656 358.90625 793.347656 358.90625 C 793.347656 358.90625 790.976562 360.574219 788.609375 358.839844 C 786.871094 357.566406 787.285156 357.136719 784.226562 357.125 C 780.21875 357.105469 779.597656 351.410156 782.679688 350.480469 C 783.582031 350.207031 784.53125 350.160156 785.183594 349.953125 C 786.675781 349.476562 787.117188 349.078125 787.117188 349.078125 C 787.117188 349.078125 787.664062 348.847656 788.726562 347.695312 " fill-opacity="1" fill-rule="nonzero"/><path fill="#3b3838" d="M 801.441406 351.582031 C 802.257812 352.96875 802.539062 354.734375 802.078125 355.996094 C 802.175781 356.148438 802.695312 357 802.449219 358.070312 C 802.425781 358.15625 802.300781 358.15625 802.277344 358.070312 C 802.207031 357.746094 802.027344 357.265625 801.59375 356.824219 C 801.496094 356.933594 801.390625 357.035156 801.273438 357.121094 C 800.210938 357.929688 799.320312 356.164062 797.617188 354.503906 C 795.957031 352.890625 795.335938 351.265625 796.390625 350.457031 C 797.449219 349.652344 799.824219 348.8125 801.441406 351.582031 " fill-opacity="1" fill-rule="nonzero"/><path fill="#3b3838" d="M 788.800781 366.652344 C 788.871094 366.707031 788.816406 366.824219 788.730469 366.804688 C 787.65625 366.574219 787.105469 365.742188 787.011719 365.585938 C 785.679688 365.472656 784.203125 364.464844 783.292969 363.140625 C 781.480469 360.492188 783.246094 358.695312 784.421875 358.078125 C 785.601562 357.464844 786.800781 358.71875 787.558594 360.914062 C 788.335938 363.160156 789.550781 364.71875 788.375 365.339844 C 788.242188 365.40625 788.109375 365.457031 787.964844 365.5 C 788.183594 366.085938 788.539062 366.449219 788.800781 366.652344 " fill-opacity="1" fill-rule="nonzero"/><path fill="#3b3838" d="M 796.007812 358.378906 C 796.996094 357.75 799.144531 357.191406 800.359375 359.746094 C 800.96875 361.027344 801.082031 362.597656 800.578125 363.671875 C 800.660156 363.808594 801.050781 364.601562 800.75 365.519531 C 800.726562 365.597656 800.613281 365.585938 800.605469 365.503906 C 800.5625 365.21875 800.445312 364.78125 800.09375 364.363281 C 800 364.453125 799.902344 364.53125 799.792969 364.601562 C 798.800781 365.226562 798.148438 363.609375 796.78125 362.023438 C 795.445312 360.480469 795.019531 359.007812 796.007812 358.378906 " fill-opacity="1" fill-rule="nonzero"/><path fill="#3b3838" d="M 791.132812 365.621094 C 789.339844 363.433594 790.753906 361.722656 791.742188 361.09375 C 792.730469 360.460938 793.878906 361.476562 794.710938 363.34375 C 795.558594 365.257812 796.742188 366.535156 795.757812 367.167969 C 795.648438 367.238281 795.53125 367.292969 795.414062 367.34375 C 795.644531 367.839844 795.988281 368.132812 796.226562 368.289062 C 796.296875 368.332031 796.261719 368.441406 796.179688 368.429688 C 795.222656 368.308594 794.675781 367.617188 794.582031 367.488281 C 793.402344 367.488281 792.027344 366.71875 791.132812 365.621094 " fill-opacity="1" fill-rule="nonzero"/><path fill="#3b3838" d="M 813.0625 317.894531 C 813.113281 320.597656 810.609375 321.496094 810.609375 321.496094 C 810.609375 321.496094 808.199219 322.628906 806.332031 320.679688 C 804.96875 319.25 805.410156 318.929688 802.644531 318.429688 C 799.023438 317.773438 799.375 312.523438 802.304688 312.175781 C 803.164062 312.074219 804.03125 312.179688 804.652344 312.097656 C 806.074219 311.90625 806.539062 311.617188 806.539062 311.617188 C 806.539062 311.617188 807.070312 311.496094 808.214844 310.625 C 808.714844 310.246094 809.253906 309.554688 809.929688 309.023438 C 812.257812 307.195312 816.199219 310.671875 814.09375 313.691406 C 812.488281 316.003906 813.027344 315.921875 813.0625 317.894531 " fill-opacity="1" fill-rule="nonzero"/><path fill="#3b3838" d="M 818.964844 322.195312 C 818.933594 322.273438 818.816406 322.25 818.8125 322.167969 C 818.796875 321.863281 818.714844 321.402344 818.390625 320.933594 C 818.285156 321.019531 818.171875 321.09375 818.054688 321.15625 C 816.96875 321.710938 816.445312 319.976562 815.167969 318.203125 C 813.925781 316.476562 813.621094 314.910156 814.707031 314.347656 C 815.789062 313.789062 818.066406 313.410156 819.089844 316.171875 C 819.605469 317.554688 819.578125 319.199219 818.957031 320.265625 C 819.027344 320.414062 819.359375 321.269531 818.964844 322.195312 " fill-opacity="1" fill-rule="nonzero"/><path fill="#3b3838" d="M 802.671875 319.324219 C 803.835938 318.957031 804.71875 320.285156 805.054688 322.386719 C 805.398438 324.542969 806.25 326.144531 805.085938 326.519531 C 804.957031 326.558594 804.828125 326.582031 804.695312 326.597656 C 804.796875 327.160156 805.058594 327.546875 805.261719 327.773438 C 805.320312 327.832031 805.25 327.929688 805.175781 327.898438 C 804.238281 327.519531 803.878906 326.675781 803.816406 326.523438 C 802.628906 326.207031 801.457031 325.0625 800.847656 323.71875 C 799.628906 321.035156 801.507812 319.691406 802.671875 319.324219 " fill-opacity="1" fill-rule="nonzero"/><path fill="#3b3838" d="M 815.523438 327.675781 C 814.527344 328.082031 814.199219 326.519531 813.214844 324.867188 C 812.25 323.253906 812.101562 321.855469 813.09375 321.441406 C 814.089844 321.035156 816.121094 320.875 816.8125 323.378906 C 817.15625 324.632812 817.011719 326.070312 816.386719 326.960938 C 816.433594 327.097656 816.664062 327.875 816.246094 328.660156 C 816.210938 328.726562 816.109375 328.699219 816.113281 328.625 C 816.125 328.355469 816.085938 327.945312 815.839844 327.507812 C 815.738281 327.574219 815.632812 327.632812 815.523438 327.675781 " fill-opacity="1" fill-rule="nonzero"/><path fill="#3b3838" d="M 808.804688 323.21875 C 809.800781 322.804688 810.675781 323.902344 811.128906 325.726562 C 811.59375 327.59375 812.460938 328.9375 811.46875 329.351562 C 811.359375 329.398438 811.246094 329.429688 811.128906 329.457031 C 811.261719 329.941406 811.523438 330.261719 811.71875 330.441406 C 811.773438 330.488281 811.71875 330.582031 811.652344 330.558594 C 810.800781 330.296875 810.421875 329.585938 810.355469 329.457031 C 809.285156 329.265625 808.171875 328.347656 807.53125 327.214844 C 806.261719 324.953125 807.8125 323.628906 808.804688 323.21875 " fill-opacity="1" fill-rule="nonzero"/><path fill="#3b3838" d="M 764.363281 289.605469 C 767.09375 291.632812 766.070312 294.832031 766.070312 294.832031 C 766.070312 294.832031 765.351562 298.117188 761.96875 298.488281 C 759.496094 298.761719 759.515625 298.070312 756.890625 300.457031 C 753.453125 303.582031 748.484375 299.199219 750.390625 295.992188 C 750.945312 295.054688 751.71875 294.265625 752.117188 293.578125 C 753.015625 292.007812 753.085938 291.320312 753.085938 291.320312 C 753.085938 291.320312 753.371094 290.695312 753.378906 288.882812 C 753.382812 288.085938 753.109375 287.015625 753.101562 285.925781 C 753.0625 282.195312 759.558594 280.910156 760.960938 285.34375 C 762.03125 288.726562 762.363281 288.125 764.363281 289.605469 " fill-opacity="1" fill-rule="nonzero"/><path fill="#3b3838" d="M 773.042969 287.125 C 772.730469 286.90625 772.203125 286.636719 771.488281 286.601562 C 771.488281 286.769531 771.476562 286.9375 771.449219 287.105469 C 771.171875 288.621094 769.03125 287.8125 766.289062 287.730469 C 763.609375 287.648438 761.808594 286.753906 762.082031 285.234375 C 762.355469 283.71875 763.726562 281.144531 767.269531 282.238281 C 769.046875 282.789062 770.664062 284.078125 771.253906 285.511719 C 771.457031 285.5625 772.566406 285.886719 773.1875 286.996094 C 773.238281 287.085938 773.128906 287.1875 773.042969 287.125 " fill-opacity="1" fill-rule="nonzero"/><path fill="#3b3838" d="M 757.804688 301.113281 C 758.332031 299.667969 760.335938 299.800781 762.691406 301.082031 C 765.105469 302.390625 767.359375 302.773438 766.839844 304.222656 C 766.78125 304.382812 766.707031 304.535156 766.617188 304.679688 C 767.257812 305.007812 767.847656 305.039062 768.226562 305.007812 C 768.332031 305 768.375 305.140625 768.285156 305.195312 C 767.191406 305.839844 766.070312 305.554688 765.871094 305.5 C 764.640625 306.445312 762.597656 306.742188 760.785156 306.320312 C 757.171875 305.480469 757.277344 302.5625 757.804688 301.113281 " fill-opacity="1" fill-rule="nonzero"/><path fill="#3b3838" d="M 777.414062 294.789062 C 777.152344 294.570312 776.714844 294.296875 776.085938 294.210938 C 776.074219 294.359375 776.054688 294.503906 776.011719 294.652344 C 775.65625 295.960938 773.839844 295.089844 771.433594 294.808594 C 769.085938 294.535156 767.578125 293.609375 767.925781 292.300781 C 768.28125 290.988281 769.679688 288.832031 772.710938 290.0625 C 774.230469 290.679688 775.554688 291.929688 775.964844 293.238281 C 776.136719 293.296875 777.085938 293.664062 777.546875 294.683594 C 777.585938 294.765625 777.484375 294.847656 777.414062 294.789062 " fill-opacity="1" fill-rule="nonzero"/><path fill="#3b3838" d="M 766.40625 297.960938 C 766.757812 296.648438 768.527344 296.609375 770.691406 297.558594 C 772.914062 298.527344 774.917969 298.6875 774.574219 300 C 774.535156 300.148438 774.476562 300.289062 774.414062 300.417969 C 775 300.660156 775.515625 300.648438 775.851562 300.589844 C 775.941406 300.574219 775.992188 300.691406 775.917969 300.75 C 775.003906 301.398438 773.996094 301.234375 773.820312 301.199219 C 772.808594 302.125 771.035156 302.535156 769.414062 302.304688 C 766.179688 301.839844 766.050781 299.269531 766.40625 297.960938 " fill-opacity="1" fill-rule="nonzero"/><path fill="#3b3838" d="M 809.054688 241.226562 C 805.542969 242.484375 806.195312 242.808594 804.714844 244.972656 C 802.6875 247.925781 799.296875 246.960938 799.296875 246.960938 C 799.296875 246.960938 795.824219 246.328125 795.308594 242.777344 C 794.929688 240.183594 795.65625 240.179688 793.058594 237.503906 C 789.65625 234 794.0625 228.605469 797.5 230.492188 C 798.5 231.042969 799.355469 231.828125 800.09375 232.222656 C 801.773438 233.113281 802.492188 233.160156 802.492188 233.160156 C 802.492188 233.160156 803.164062 233.4375 805.066406 233.378906 C 805.898438 233.355469 807.011719 233.027344 808.152344 232.976562 C 812.066406 232.796875 813.648438 239.589844 809.054688 241.226562 " fill-opacity="1" fill-rule="nonzero"/><path fill="#3b3838" d="M 809.257812 252.074219 C 809.214844 252.289062 808.917969 253.472656 807.777344 254.164062 C 807.683594 254.222656 807.578125 254.113281 807.636719 254.019531 C 807.851562 253.679688 808.117188 253.113281 808.128906 252.359375 C 807.953125 252.371094 807.773438 252.363281 807.59375 252.339844 C 805.996094 252.101562 806.765625 249.820312 806.75 246.929688 C 806.734375 244.101562 807.609375 242.175781 809.210938 242.40625 C 810.808594 242.636719 813.5625 243.988281 812.546875 247.761719 C 812.035156 249.648438 810.746094 251.402344 809.257812 252.074219 " fill-opacity="1" fill-rule="nonzero"/><path fill="#3b3838" d="M 792.617188 243.636719 C 791.332031 246.226562 791.019531 248.613281 789.476562 248.117188 C 789.308594 248.0625 789.144531 247.992188 788.988281 247.902344 C 788.671875 248.589844 788.65625 249.210938 788.703125 249.609375 C 788.714844 249.71875 788.570312 249.769531 788.507812 249.675781 C 787.792969 248.550781 788.046875 247.359375 788.101562 247.148438 C 787.0625 245.886719 786.675781 243.746094 787.050781 241.824219 C 787.796875 237.988281 790.859375 237.992188 792.398438 238.492188 C 793.9375 238.992188 793.875 241.109375 792.617188 243.636719 " fill-opacity="1" fill-rule="nonzero"/><path fill="#3b3838" d="M 799.519531 252.609375 C 799.71875 250.125 800.632812 248.5 802.019531 248.824219 C 803.40625 249.148438 805.722656 250.542969 804.542969 253.78125 C 803.953125 255.398438 802.691406 256.839844 801.332031 257.316406 C 801.277344 257.503906 800.929688 258.519531 799.875 259.039062 C 799.789062 259.085938 799.703125 258.980469 799.761719 258.902344 C 799.976562 258.621094 800.253906 258.148438 800.320312 257.484375 C 800.160156 257.480469 800.007812 257.460938 799.855469 257.425781 C 798.46875 257.09375 799.316406 255.152344 799.519531 252.609375 " fill-opacity="1" fill-rule="nonzero"/><path fill="#3b3838" d="M 791.582031 250.757812 C 791.949219 247.335938 794.640625 247.109375 796.027344 247.429688 C 797.417969 247.753906 797.523438 249.613281 796.609375 251.933594 C 795.671875 254.304688 795.578125 256.421875 794.1875 256.105469 C 794.035156 256.070312 793.886719 256.019531 793.746094 255.957031 C 793.511719 256.578125 793.546875 257.125 793.621094 257.472656 C 793.636719 257.570312 793.515625 257.625 793.457031 257.546875 C 792.742188 256.613281 792.875 255.546875 792.90625 255.359375 C 791.898438 254.324219 791.398438 252.476562 791.582031 250.757812 " fill-opacity="1" fill-rule="nonzero"/><path fill="#3b3838" d="M 738.234375 247.988281 C 738.234375 247.988281 736.667969 251.15625 733.125 250.675781 C 730.53125 250.320312 730.722656 249.625 727.441406 251.386719 C 723.140625 253.699219 719.179688 247.960938 721.9375 245.171875 C 722.742188 244.359375 723.730469 243.753906 724.3125 243.148438 C 725.628906 241.777344 725.875 241.097656 725.875 241.097656 C 725.875 241.097656 726.324219 240.527344 726.792969 238.679688 C 727 237.867188 726.992188 236.707031 727.257812 235.59375 C 728.167969 231.773438 735.121094 232.117188 735.425781 237 C 735.660156 240.726562 736.152344 240.195312 737.820312 242.214844 C 740.09375 244.980469 738.234375 247.988281 738.234375 247.988281 " fill-opacity="1" fill-rule="nonzero"/><path fill="#3b3838" d="M 742.65625 235.441406 C 744.332031 236.453125 745.65625 238.175781 745.890625 239.796875 C 746.082031 239.898438 747.136719 240.507812 747.488281 241.800781 C 747.515625 241.90625 747.378906 241.980469 747.308594 241.894531 C 747.042969 241.59375 746.574219 241.183594 745.851562 240.964844 C 745.8125 241.136719 745.757812 241.308594 745.683594 241.46875 C 745.015625 242.945312 743.039062 241.578125 740.257812 240.792969 C 737.542969 240.027344 735.9375 238.65625 736.597656 237.175781 C 737.261719 235.699219 739.320312 233.417969 742.65625 235.441406 " fill-opacity="1" fill-rule="nonzero"/><path fill="#3b3838" d="M 737.867188 259.125 C 736.585938 259.507812 735.515625 258.933594 735.324219 258.824219 C 733.828125 259.476562 731.667969 259.257812 729.929688 258.367188 C 726.453125 256.589844 727.300781 253.636719 728.203125 252.292969 C 729.109375 250.949219 731.121094 251.597656 733.203125 253.5 C 735.332031 255.457031 737.535156 256.417969 736.636719 257.765625 C 736.535156 257.914062 736.421875 258.050781 736.296875 258.175781 C 736.863281 258.671875 737.457031 258.855469 737.855469 258.921875 C 737.960938 258.941406 737.972656 259.09375 737.867188 259.125 " fill-opacity="1" fill-rule="nonzero"/><path fill="#3b3838" d="M 746.226562 244.808594 C 747.617188 245.824219 748.652344 247.441406 748.738281 248.878906 C 748.898438 248.984375 749.777344 249.597656 749.988281 250.757812 C 750.007812 250.855469 749.882812 250.910156 749.824219 250.832031 C 749.613281 250.546875 749.234375 250.152344 748.617188 249.902344 C 748.566406 250.050781 748.507812 250.195312 748.429688 250.335938 C 747.730469 251.578125 746.097656 250.226562 743.714844 249.328125 C 741.390625 248.449219 740.082031 247.125 740.773438 245.875 C 741.46875 244.628906 743.445312 242.78125 746.226562 244.808594 " fill-opacity="1" fill-rule="nonzero"/><path fill="#3b3838" d="M 742.261719 251.945312 C 744.28125 253.5 746.289062 254.179688 745.601562 255.429688 C 745.523438 255.570312 745.433594 255.699219 745.332031 255.816406 C 745.867188 256.210938 746.402344 256.328125 746.753906 256.355469 C 746.855469 256.359375 746.875 256.496094 746.78125 256.535156 C 745.6875 256.964844 744.703125 256.539062 744.527344 256.460938 C 743.261719 257.144531 741.347656 257.117188 739.753906 256.464844 C 736.566406 255.167969 737.089844 252.511719 737.78125 251.261719 C 738.476562 250.011719 740.292969 250.429688 742.261719 251.945312 " fill-opacity="1" fill-rule="nonzero"/><path fill="#3b3838" d="M 765.257812 202.199219 C 765.257812 202.199219 764.136719 204.09375 761.960938 203.632812 C 760.367188 203.292969 760.523438 202.867188 758.40625 203.808594 C 755.632812 205.042969 753.441406 201.304688 755.277344 199.703125 C 755.816406 199.234375 756.457031 198.90625 756.84375 198.558594 C 757.726562 197.769531 757.910156 197.355469 757.910156 197.355469 C 757.910156 197.355469 758.214844 197.023438 758.589844 195.898438 C 758.757812 195.410156 758.804688 194.6875 759.019531 194.007812 C 759.761719 191.679688 764.058594 192.21875 764.023438 195.261719 C 763.996094 197.582031 764.324219 197.273438 765.261719 198.605469 C 766.546875 200.421875 765.257812 202.199219 765.257812 202.199219 " fill-opacity="1" fill-rule="nonzero"/><path fill="#3b3838" d="M 771.160156 198.84375 C 771.011719 198.644531 770.738281 198.371094 770.304688 198.199219 C 770.269531 198.304688 770.226562 198.410156 770.175781 198.507812 C 769.691406 199.390625 768.53125 198.449219 766.839844 197.832031 C 765.195312 197.234375 764.261719 196.308594 764.742188 195.421875 C 765.21875 194.539062 766.601562 193.21875 768.578125 194.625 C 769.566406 195.332031 770.308594 196.460938 770.378906 197.476562 C 770.496094 197.550781 771.121094 197.976562 771.277344 198.792969 C 771.289062 198.863281 771.199219 198.898438 771.160156 198.84375 " fill-opacity="1" fill-rule="nonzero"/><path fill="#3b3838" d="M 764.511719 209.09375 C 763.703125 209.269531 763.066406 208.863281 762.953125 208.785156 C 761.996094 209.121094 760.664062 208.882812 759.625 208.25 C 757.554688 206.992188 758.214844 205.195312 758.835938 204.40625 C 759.460938 203.617188 760.679688 204.109375 761.882812 205.390625 C 763.113281 206.699219 764.433594 207.394531 763.8125 208.1875 C 763.746094 208.277344 763.667969 208.355469 763.582031 208.429688 C 763.914062 208.765625 764.273438 208.90625 764.515625 208.964844 C 764.582031 208.980469 764.582031 209.074219 764.511719 209.09375 " fill-opacity="1" fill-rule="nonzero"/><path fill="#3b3838" d="M 772.308594 204.503906 C 772.191406 204.3125 771.972656 204.054688 771.601562 203.871094 C 771.566406 203.960938 771.523438 204.046875 771.46875 204.128906 C 770.980469 204.867188 770.027344 203.953125 768.59375 203.289062 C 767.191406 202.632812 766.441406 201.75 766.925781 201.011719 C 767.414062 200.269531 768.726562 199.214844 770.355469 200.601562 C 771.171875 201.292969 771.738281 202.34375 771.726562 203.242188 C 771.820312 203.3125 772.335938 203.734375 772.414062 204.464844 C 772.421875 204.523438 772.339844 204.554688 772.308594 204.503906 " fill-opacity="1" fill-rule="nonzero"/><path fill="#3b3838" d="M 770.164062 207.894531 C 769.460938 208.113281 768.871094 207.804688 768.765625 207.746094 C 767.949219 208.113281 766.765625 208.003906 765.804688 207.527344 C 763.890625 206.574219 764.335938 204.953125 764.824219 204.210938 C 765.3125 203.46875 766.417969 203.808594 767.570312 204.84375 C 768.75 205.898438 769.960938 206.414062 769.476562 207.15625 C 769.425781 207.238281 769.363281 207.3125 769.296875 207.382812 C 769.609375 207.65625 769.9375 207.75 770.152344 207.785156 C 770.210938 207.792969 770.21875 207.878906 770.164062 207.894531 " fill-opacity="1" fill-rule="nonzero"/><path fill="#3b3838" d="M 759.71875 158.910156 C 759.410156 163.035156 755.464844 164.046875 755.464844 164.046875 C 755.464844 164.046875 751.632812 165.429688 749.066406 162.191406 C 747.1875 159.820312 747.90625 159.394531 743.765625 158.234375 C 738.339844 156.714844 739.621094 148.769531 744.140625 148.65625 C 745.460938 148.621094 746.765625 148.910156 747.730469 148.871094 C 749.921875 148.785156 750.667969 148.410156 750.667969 148.410156 C 750.667969 148.410156 751.5 148.300781 753.359375 147.136719 C 754.179688 146.625 755.097656 145.65625 756.207031 144.9375 C 760.011719 142.488281 765.527344 148.34375 761.886719 152.652344 C 759.109375 155.941406 759.945312 155.890625 759.71875 158.910156 " fill-opacity="1" fill-rule="nonzero"/><path fill="#3b3838" d="M 768.101562 166.304688 C 768.039062 166.417969 767.867188 166.367188 767.875 166.242188 C 767.894531 165.777344 767.828125 165.0625 767.40625 164.300781 C 767.234375 164.414062 767.054688 164.507812 766.863281 164.585938 C 765.128906 165.277344 764.574219 162.558594 762.886719 159.679688 C 761.234375 156.867188 760.992188 154.4375 762.722656 153.738281 C 764.453125 153.035156 767.984375 152.785156 769.152344 157.140625 C 769.734375 159.324219 769.460938 161.820312 768.371094 163.355469 C 768.449219 163.597656 768.839844 164.949219 768.101562 166.304688 " fill-opacity="1" fill-rule="nonzero"/><path fill="#3b3838" d="M 743.679688 159.601562 C 745.503906 159.207031 746.667969 161.355469 746.878906 164.609375 C 747.089844 167.9375 748.160156 170.503906 746.335938 170.90625 C 746.136719 170.949219 745.929688 170.972656 745.726562 170.976562 C 745.800781 171.847656 746.148438 172.472656 746.425781 172.84375 C 746.503906 172.949219 746.386719 173.082031 746.273438 173.027344 C 744.90625 172.320312 744.472656 170.980469 744.402344 170.738281 C 742.632812 170.082031 741.011719 168.167969 740.273438 166.035156 C 738.796875 161.773438 741.855469 159.996094 743.679688 159.601562 " fill-opacity="1" fill-rule="nonzero"/><path fill="#3b3838" d="M 762.078125 174.164062 C 760.507812 174.640625 760.222656 172.207031 758.957031 169.550781 C 757.71875 166.957031 757.691406 164.804688 759.261719 164.320312 C 760.832031 163.839844 763.953125 163.882812 764.652344 167.796875 C 765 169.761719 764.570312 171.929688 763.496094 173.199219 C 763.546875 173.414062 763.789062 174.628906 763.039062 175.765625 C 762.976562 175.859375 762.828125 175.804688 762.84375 175.695312 C 762.898438 175.285156 762.894531 174.65625 762.578125 173.953125 C 762.421875 174.039062 762.253906 174.109375 762.078125 174.164062 " fill-opacity="1" fill-rule="nonzero"/><path fill="#3b3838" d="M 752.476562 166.410156 C 754.050781 165.925781 755.230469 167.726562 755.660156 170.566406 C 756.101562 173.476562 757.230469 175.648438 755.660156 176.140625 C 755.488281 176.195312 755.308594 176.226562 755.128906 176.246094 C 755.261719 177.003906 755.613281 177.53125 755.886719 177.835938 C 755.960938 177.921875 755.871094 178.050781 755.765625 178.003906 C 754.511719 177.488281 754.027344 176.34375 753.949219 176.136719 C 752.347656 175.695312 750.777344 174.140625 749.96875 172.320312 C 748.351562 168.6875 750.90625 166.894531 752.476562 166.410156 " fill-opacity="1" fill-rule="nonzero"/><path fill="#3b3838" d="M 702.664062 153.578125 C 704.417969 156.363281 702.371094 158.890625 702.371094 158.890625 C 702.371094 158.890625 700.574219 161.59375 697.398438 160.742188 C 695.074219 160.117188 695.332031 159.5 692.132812 160.726562 C 687.941406 162.335938 684.996094 156.636719 687.835938 154.417969 C 688.664062 153.769531 689.640625 153.335938 690.238281 152.851562 C 691.597656 151.753906 691.902344 151.160156 691.902344 151.160156 C 691.902344 151.160156 692.378906 150.695312 693.019531 149.0625 C 693.304688 148.351562 693.429688 147.289062 693.800781 146.300781 C 695.078125 142.925781 701.378906 144.054688 701.089844 148.542969 C 700.867188 151.96875 701.378906 151.539062 702.664062 153.578125 " fill-opacity="1" fill-rule="nonzero"/><path fill="#3b3838" d="M 711.351562 154.394531 C 711.148438 154.085938 710.765625 153.660156 710.136719 153.375 C 710.078125 153.527344 710.007812 153.675781 709.921875 153.816406 C 709.140625 155.082031 707.5 153.605469 705.054688 152.566406 C 702.667969 151.546875 701.363281 150.109375 702.136719 148.839844 C 702.914062 147.570312 705.054688 145.730469 707.863281 147.964844 C 709.273438 149.082031 710.277344 150.808594 710.304688 152.3125 C 710.46875 152.429688 711.355469 153.109375 711.527344 154.328125 C 711.542969 154.425781 711.410156 154.480469 711.351562 154.394531 " fill-opacity="1" fill-rule="nonzero"/><path fill="#3b3838" d="M 697.140625 163.328125 C 698.855469 165.359375 700.753906 166.492188 699.777344 167.617188 C 699.667969 167.742188 699.546875 167.851562 699.417969 167.953125 C 699.878906 168.472656 700.398438 168.710938 700.75 168.8125 C 700.847656 168.84375 700.839844 168.988281 700.738281 169.003906 C 699.527344 169.203125 698.617188 168.550781 698.457031 168.429688 C 697.015625 168.847656 695.070312 168.398438 693.585938 167.382812 C 690.628906 165.355469 691.742188 162.761719 692.722656 161.640625 C 693.707031 160.527344 695.464844 161.347656 697.140625 163.328125 " fill-opacity="1" fill-rule="nonzero"/><path fill="#3b3838" d="M 712.605469 162.835938 C 712.449219 162.550781 712.148438 162.144531 711.613281 161.847656 C 711.554688 161.980469 711.480469 162.101562 711.394531 162.222656 C 710.613281 163.273438 709.28125 161.851562 707.210938 160.753906 C 705.195312 159.679688 704.15625 158.316406 704.933594 157.261719 C 705.710938 156.199219 707.726562 154.75 710.027344 156.925781 C 711.179688 158.011719 711.933594 159.609375 711.84375 160.929688 C 711.980469 161.046875 712.707031 161.707031 712.765625 162.789062 C 712.769531 162.878906 712.652344 162.914062 712.605469 162.835938 " fill-opacity="1" fill-rule="nonzero"/><path fill="#3b3838" d="M 705.582031 162.96875 C 707.242188 164.621094 708.996094 165.472656 708.222656 166.535156 C 708.136719 166.652344 708.039062 166.761719 707.933594 166.859375 C 708.375 167.28125 708.851562 167.449219 709.167969 167.515625 C 709.253906 167.53125 709.257812 167.65625 709.171875 167.679688 C 708.121094 167.945312 707.273438 167.441406 707.125 167.347656 C 705.890625 167.828125 704.148438 167.578125 702.769531 166.796875 C 700.015625 165.242188 700.800781 162.878906 701.578125 161.820312 C 702.355469 160.765625 703.964844 161.355469 705.582031 162.96875 " fill-opacity="1" fill-rule="nonzero"/></svg>